<svg width="84" height="75" viewBox="0 0 84 75" fill="none" xmlns="http://www.w3.org/2000/svg">
<g clip-path="url(#clip0)">
<path d="M56.4894 13.5691C50.9096 8.91766 43.8329 6.35555 36.5611 6.35555C19.3867 6.35555 5.41647 20.3272 5.41647 37.5002C5.41647 44.772 7.97858 51.85 12.6314 57.4285L13.5789 58.5677L57.6273 14.5193L56.4894 13.5691ZM18.9576 49.3593V21.2508H47.0648L18.9576 49.3593ZM49.773 18.5426H16.2494V52.0676L13.7904 54.5272C10.1274 49.6317 8.1247 43.6427 8.1247 37.5002C8.1247 21.8195 20.8817 9.06379 36.5611 9.06379C42.7023 9.06379 48.6927 11.0665 53.5881 14.7282L49.773 18.5426Z" fill="#2D3E9F"/>
<path d="M83.9552 18.5426H67.809C61.1964 7.67066 49.3062 0.939087 36.5611 0.939087C16.4008 0.939087 0 17.3399 0 37.5002C0 57.6606 16.4008 74.0614 36.5611 74.0614C49.3062 74.0614 61.1951 67.3285 67.8077 56.4579H83.9552V18.5426ZM36.5611 71.3531C17.8944 71.3531 2.70823 56.1669 2.70823 37.5002C2.70823 18.8335 17.8944 3.64732 36.5611 3.64732C47.806 3.64732 58.3407 9.30049 64.6062 18.5426H61.2506C61 18.216 60.7541 17.8874 60.4896 17.5707L59.5408 16.4341L15.4937 60.4825L16.6329 61.43C22.2113 66.0828 29.2894 68.6449 36.5611 68.6449C46.2079 68.6449 55.3793 64.0966 61.2572 56.4579H64.6062C58.3394 65.7 47.8047 71.3531 36.5611 71.3531ZM44.7156 35.0902C44.8716 37.1888 46.6099 38.8544 48.7482 38.8544H51.4564C52.2036 38.8544 52.8105 39.4613 52.8105 40.2085C52.8105 40.9556 52.2036 41.5626 51.4564 41.5626H48.7482C48.0011 41.5626 47.3941 40.9556 47.3941 40.2085H44.6858C44.6858 42.4479 46.5087 44.2708 48.7482 44.2708V45.6249H51.4564V44.2708C53.6959 44.2708 55.5188 42.4479 55.5188 40.2085C55.5188 37.969 53.6959 36.1461 51.4564 36.1461H48.7482C48.0011 36.1461 47.3941 35.5378 47.3941 34.792C47.3941 34.0462 48.0011 33.4379 48.7482 33.4379H51.4564C52.2036 33.4379 52.8105 34.0462 52.8105 34.792H55.5188C55.5188 32.5526 53.6959 30.7297 51.4564 30.7297V29.3755H50.4303L52.7927 27.0124C57.5486 28.2257 60.9352 32.5268 60.9352 37.5002C60.9352 43.4734 56.0755 48.3332 50.1023 48.3332C45.1288 48.3332 40.8278 44.9466 39.6145 40.1906L44.7156 35.0902ZM23.3479 56.4579H57.7384C52.3728 62.4324 44.6495 65.9367 36.5611 65.9367C30.4187 65.9367 24.4296 63.9339 19.5342 60.2709L23.3479 56.4579ZM81.247 53.7496H26.0562L37.4564 42.3494C39.4281 47.5021 44.4148 51.0414 50.1023 51.0414C57.5691 51.0414 63.6435 44.967 63.6435 37.5002C63.6435 31.814 60.1055 26.826 54.9528 24.8543L58.555 21.2508H81.247V53.7496Z" fill="#2D3E9F"/>
<path d="M24.3741 26.6673H28.4364V23.9591H21.6659V30.7296H24.3741V26.6673Z" fill="#2D3E9F"/>
<path d="M78.5388 44.2708H75.8305V48.3332H71.7682V51.0414H78.5388V44.2708Z" fill="#2D3E9F"/>
<path d="M75.8305 30.7296H78.5388V23.9591H71.7682V26.6673H75.8305V30.7296Z" fill="#2D3E9F"/>
</g>
<defs>
<clipPath id="clip0">
<rect width="83.9552" height="75" fill="white"/>
</clipPath>
</defs>
</svg>
