<svg width="78" height="75" viewBox="0 0 78 75" fill="none" xmlns="http://www.w3.org/2000/svg">
<g clip-path="url(#clip0)">
<path d="M76.9155 61.3551C76.5539 59.615 75.531 58.1282 74.0348 57.1682C72.5387 56.2088 70.7615 55.899 69.0285 56.2952L60.9968 58.1341V54.8508C62.6076 53.3335 64.2848 51.3523 65.4776 49.5416C67.5693 46.3665 69.0496 42.8798 69.8774 39.1802C70.8615 34.7788 70.8826 30.1192 69.9379 25.7036C69.7639 24.8912 68.9638 24.3727 68.1513 24.5473C67.3383 24.7207 66.821 25.5208 66.9944 26.3338C67.8492 30.3273 67.8303 34.5424 66.9397 38.523C66.1919 41.8657 64.8539 45.0161 62.9639 47.8856C62.4036 48.7362 61.724 49.6286 60.9968 50.4811V33.7993C60.9968 32.9681 60.3231 32.2944 59.4918 32.2944H47.5867V16.2229C47.5867 15.394 46.9159 14.7208 46.087 14.7179L32.6768 14.6726C32.675 14.6726 32.6739 14.6726 32.6721 14.6726C32.2735 14.6726 31.8914 14.8302 31.6098 15.1118C31.3264 15.394 31.1671 15.7773 31.1671 16.1776V24.5379H19.2602C18.4295 24.5379 17.7552 25.2116 17.7552 26.0428V40.9462H14.4019V38.9022C14.4019 38.0715 13.7282 37.3978 12.8969 37.3978H11.3532C11.0904 35.951 10.9381 34.4813 10.9023 33.0139C10.8141 29.4461 11.3796 25.9552 12.5824 22.6372C12.8628 21.8636 13.1815 21.0923 13.5289 20.3457C13.8799 19.592 13.553 18.6967 12.7999 18.3457C12.0463 17.9959 11.1509 18.3216 10.8006 19.0753C10.4155 19.9018 10.0628 20.7554 9.75295 21.6114C8.42199 25.2827 7.79648 29.1445 7.8929 33.088C7.92876 34.5295 8.06632 35.9722 8.29971 37.3978H1.50498C0.673712 37.3978 0 38.0715 0 38.9027V65.3562C0 66.1875 0.673712 66.8612 1.50498 66.8612H12.8969C13.7282 66.8612 14.4019 66.1875 14.4019 65.3562V63.9253H20.0632L42.9959 72.9199C45.1369 73.76 47.3797 74.1827 49.6342 74.1827C51.1375 74.1827 52.6471 73.9946 54.1339 73.6166L72.1084 69.0481C75.5204 68.181 77.6315 64.8019 76.9155 61.3551ZM57.9874 35.3043V58.8231L53.964 59.7443C53.5313 59.8431 53.0939 59.9213 52.6542 59.9824C50.9776 60.2135 49.2668 60.1647 47.6078 59.836C47.6008 59.8343 47.5937 59.8331 47.5867 59.8313V57.5492C48.7342 55.8373 49.1146 53.6668 48.5132 51.6856C48.3456 51.133 48.1075 50.5998 47.8048 50.1078C47.736 49.9961 47.6643 49.8867 47.5896 49.7797C47.589 49.778 47.5878 49.7768 47.5867 49.775V35.3037L57.9874 35.3043ZM34.1771 17.6879L44.5773 17.7226V47.3847L34.1771 43.0796V17.6879ZM20.7651 27.5478H31.1654V41.8328L29.2988 41.0603C29.116 40.9844 28.9202 40.9456 28.7233 40.9456H20.7651V27.5478ZM11.392 63.8513H3.00995V40.4071H10.1104C10.1133 40.4071 10.1169 40.4077 10.1204 40.4077C10.1233 40.4077 10.1257 40.4071 10.1286 40.4071H11.392V63.8513ZM71.367 66.1311L53.3926 70.6995C50.2897 71.4878 47.0746 71.2862 44.0946 70.1181L20.8974 61.0194C20.7222 60.9507 20.5359 60.916 20.3478 60.916H14.4019V43.9562H28.4235L43.4897 50.1924C45.375 50.9743 46.2774 53.1859 45.5044 55.0689C45.3492 55.4469 45.1569 55.8061 44.9018 56.1265C43.9594 57.3158 42.408 57.8402 40.9571 57.4874C40.9454 57.4845 40.9336 57.4816 40.9218 57.4786C40.8348 57.4569 40.7484 57.4316 40.6626 57.4034L30.5363 53.5104C30.454 53.4787 30.4105 53.4622 30.4105 53.4622C29.6351 53.1636 28.7645 53.551 28.4658 54.327C28.1678 55.1024 28.5546 55.9737 29.3306 56.2717C29.3306 56.2717 35.0401 58.4669 39.3939 60.1458C39.4815 60.1799 39.5685 60.2117 39.6561 60.2411L42.9994 61.5268C44.01 61.9154 45.0158 62.3022 46.0676 62.5709C47.8535 63.0271 49.7071 63.2105 51.5484 63.1099C52.5866 63.0535 53.623 62.9101 54.6365 62.6784L59.8281 61.4903C59.8334 61.4892 59.8387 61.4868 59.844 61.4856L69.7004 59.2293C70.6381 59.0148 71.6004 59.1823 72.4094 59.7014C73.2195 60.2211 73.7727 61.0259 73.9684 61.9677C74.3564 63.833 73.2136 65.6619 71.367 66.1311Z" fill="#2D3E9F"/>
<path d="M19.2455 11.6332C19.6052 11.6332 19.9662 11.5051 20.2537 11.2452C22.9391 8.81962 26.146 6.8849 29.5293 5.64976C33.1947 4.31174 37.2129 3.74091 41.1499 3.99958C43.9676 4.18476 46.7283 4.78616 49.355 5.78674C50.131 6.08244 51.001 5.69326 51.2968 4.91609C51.593 4.13949 51.2033 3.27002 50.4261 2.97431C47.5196 1.86674 44.465 1.20126 41.3474 0.996092C36.9959 0.710382 32.5522 1.34177 28.497 2.82264C24.7539 4.18888 21.206 6.32935 18.2367 9.01127C17.6194 9.56858 17.5712 10.5204 18.1285 11.137C18.4254 11.4663 18.8345 11.6332 19.2455 11.6332Z" fill="#2D3E9F"/>
<path d="M53.4096 22.3739C53.6947 22.6214 54.0463 22.7425 54.3961 22.7425C54.8164 22.7425 55.235 22.5673 55.533 22.2251L67.915 7.97194C68.4605 7.34467 68.3935 6.39407 67.7662 5.8491C67.1384 5.30414 66.1884 5.37057 65.6434 5.99784L53.2609 20.251C52.7153 20.8783 52.7823 21.8289 53.4096 22.3739Z" fill="#2D3E9F"/>
<path d="M64.5059 15.9395C62.4224 15.9395 60.7275 17.6344 60.7275 19.7178C60.7275 21.8013 62.4224 23.4961 64.5059 23.4961C66.5893 23.4961 68.2842 21.8007 68.2842 19.7178C68.2842 17.6344 66.5893 15.9395 64.5059 15.9395ZM64.5059 20.4862C64.082 20.4862 63.7375 20.1417 63.7375 19.7178C63.7375 19.2946 64.082 18.9495 64.5059 18.9495C64.9291 18.9495 65.2742 19.2946 65.2742 19.7178C65.2742 20.1417 64.9291 20.4862 64.5059 20.4862Z" fill="#2D3E9F"/>
<path d="M56.1485 12.5891C58.232 12.5891 59.9268 10.8942 59.9268 8.81077C59.9268 6.72732 58.232 5.03246 56.1485 5.03246C54.0651 5.03246 52.3702 6.72732 52.3702 8.81077C52.3702 10.8942 54.0651 12.5891 56.1485 12.5891ZM56.1485 8.04182C56.5724 8.04182 56.9169 8.38691 56.9169 8.81077C56.9169 9.23405 56.5724 9.57913 56.1485 9.57913C55.7247 9.57913 55.3802 9.23405 55.3802 8.81077C55.3802 8.38691 55.7247 8.04182 56.1485 8.04182Z" fill="#2D3E9F"/>
<path d="M13.8952 15.17C14.1362 15.7485 14.7294 16.1306 15.3578 16.0977C15.9792 16.0653 16.5236 15.645 16.7158 15.0548C16.9098 14.4592 16.6982 13.7808 16.2002 13.4005C15.6929 13.0136 14.9804 12.9895 14.4489 13.3428C13.8593 13.735 13.623 14.5168 13.8952 15.17Z" fill="#2D3E9F"/>
</g>
<defs>
<clipPath id="clip0">
<rect width="77.0548" height="75" fill="white"/>
</clipPath>
</defs>
</svg>
