<svg width="75" height="75" viewBox="0 0 75 75" fill="none" xmlns="http://www.w3.org/2000/svg">
<g clip-path="url(#clip0)">
<path d="M75 31.4521H72.2818L68.2304 33.5838C67.7744 33.3322 67.3001 33.119 66.7886 32.9908L61.6924 31.7155V31.1361C63.9469 29.5626 65.3226 26.9631 65.3226 24.194V22.0795C65.3226 17.3802 61.6404 13.4475 57.1147 13.3105C56.885 13.3046 56.6587 13.3128 56.4313 13.3241L57.7526 10.2308L51.3469 3.8268L47.5708 6.28455C46.1361 5.47652 44.6187 4.84747 43.0428 4.40624L42.1101 0.000488281H32.8911L31.9584 4.40742C30.3825 4.84865 28.8639 5.4777 27.4304 6.28573L23.6543 3.82798L17.2539 10.2284L18.5527 13.3241C18.5031 13.3217 18.4559 13.3128 18.4062 13.3117C16.0897 13.2443 13.9077 14.0896 12.2503 15.6985C10.5906 17.3063 9.67742 19.464 9.67742 21.7747V24.194C9.67742 26.9631 11.0519 29.5614 13.3065 31.1349V31.7155L9.9822 32.5466L3.95685 29.0327H0V54.0987L11.9007 58.065H14.2184L14.5079 57.0514L18.1558 59.241C18.2155 61.2245 19.8061 62.8204 21.7878 62.8901C21.8575 64.8635 23.4434 66.4495 25.4168 66.5192C25.4865 68.4926 27.0724 70.0785 29.0458 70.1482C29.1179 72.1677 30.7718 73.7908 32.8078 73.7908C33.5638 73.7908 34.3051 73.5551 34.9283 73.1352L35.9997 74.0814C36.6713 74.6727 37.536 75.0005 38.4338 75.0005H38.6577C40.6707 75.0005 42.3086 73.3732 42.334 71.3667C44.3251 71.3413 45.9376 69.7288 45.963 67.7377C47.9553 67.7123 49.569 66.0974 49.592 64.1051C51.6027 64.0579 53.2258 62.4152 53.2258 60.3934C53.2258 60.2717 53.2199 60.1518 53.2075 60.0307L75 49.1354V31.4521ZM62.9032 22.0795V24.194C62.9032 26.3411 61.7432 28.347 59.8755 29.4285L59.2707 29.7782L59.2754 33.6063L65.319 35.116L52.0161 42.1177V38.859C52.0161 37.2329 51.3593 35.7439 50.2837 34.6435L54.4355 33.6063V29.7752L53.8318 29.4261C51.9653 28.347 50.8065 26.3411 50.8065 24.194V21.7747C50.8065 20.125 51.4585 18.5821 52.644 17.4333C53.8283 16.2851 55.3994 15.666 57.0421 15.7298C60.2736 15.8267 62.9032 18.6755 62.9032 22.0795ZM39.324 41.1667L33.8479 39.4166C31.3524 38.6168 28.6513 38.4975 26.0967 39.0634L25.4032 39.217V38.859C25.4032 37.191 26.5343 35.7427 28.1516 35.3375L35.0806 33.6063V29.7752L34.477 29.4261C32.6105 28.347 31.4516 26.3411 31.4516 24.194V21.7747C31.4516 20.125 32.1037 18.5821 33.2892 17.4333C34.4734 16.2851 36.0546 15.666 37.6872 15.7298C40.9188 15.8267 43.5484 18.6755 43.5484 22.0795V24.194C43.5484 26.3411 42.3883 28.347 40.5206 29.4285L39.9158 29.7782L39.9205 33.6063L46.8484 35.3375C48.4657 35.7427 49.5968 37.191 49.5968 38.859V43.3918L49.2979 43.5489H48.5566L41.1196 41.4237C40.5336 41.2577 39.93 41.1898 39.324 41.1667ZM25.6743 18.1055C27.946 13.7039 32.5184 10.8876 37.5 10.8876C42.4344 10.8876 46.9872 13.6661 49.276 18.008C48.7001 19.1628 48.3871 20.4416 48.3871 21.7747V24.194C48.3871 26.9631 49.7616 29.5614 52.0161 31.1349V31.7155L47.1774 32.927L42.3375 31.7155V31.1361C44.5921 29.5626 45.9677 26.9631 45.9677 24.194V22.0795C45.9677 17.3802 42.2856 13.4475 37.7599 13.3105C35.4445 13.2426 33.2614 14.0884 31.604 15.6974C29.9454 17.3063 29.0323 19.464 29.0323 21.7747V24.194C29.0323 26.9631 30.4067 29.5614 32.6613 31.1349V31.7155L27.8226 32.927L22.9827 31.7155V31.1361C25.2373 29.5626 26.6129 26.9631 26.6129 24.194V22.0795C26.6129 20.656 26.2703 19.3045 25.6743 18.1055ZM20.1109 10.7895L23.9756 6.92483L27.3772 9.13863L28.0281 8.73934C29.659 7.73994 31.4215 7.00811 33.2661 6.56689L34.0104 6.38851L34.8521 2.41984H40.1491L40.9885 6.38733L41.7327 6.56511C43.5773 7.00693 45.3399 7.73876 46.9707 8.73816L47.6216 9.13745L51.0232 6.92365L54.8832 10.7848L53.5111 13.9974C52.5773 14.3991 51.7113 14.9643 50.9577 15.695C50.908 15.7434 50.8655 15.7954 50.8171 15.845C47.9671 11.3146 42.9288 8.46823 37.5 8.46823C32.0322 8.46823 26.9797 11.3412 24.1368 15.9177C23.3761 15.1215 22.4712 14.4765 21.4682 14.0258L20.1109 10.7895ZM15.7258 33.6063V29.7752L15.1221 29.4261C13.2557 28.347 12.0968 26.3411 12.0968 24.194V21.7747C12.0968 20.125 12.7489 18.5821 13.9343 17.4333C15.1186 16.2851 16.6933 15.666 18.3324 15.7298C21.5639 15.8267 24.1936 18.6755 24.1936 22.0795V24.194C24.1936 26.3411 23.0335 28.347 21.1658 29.4285L20.561 29.7782L20.5657 33.6063L24.7163 34.6435C23.6407 35.7439 22.9839 37.2329 22.9839 38.859V39.7551L19.2107 40.5938L19.3088 40.2512L19.3548 38.0155L12.9751 34.2938L15.7258 33.6063ZM2.41935 31.4521H3.30121L12.0011 36.5265L7.61128 54.0851L2.41935 52.3539V31.4521ZM12.2929 55.6457L9.91191 54.8524L14.1765 37.7958L16.9355 39.4048V39.7503L12.3945 55.6457H12.2929ZM20.5645 59.1282C20.5645 58.7714 20.7086 58.4218 20.9614 58.169L23.0878 56.0426C23.3406 55.7898 23.6903 55.6457 24.0471 55.6457C24.7948 55.6457 25.4032 56.254 25.4032 57.0018C25.4032 57.3586 25.2591 57.7082 25.0063 57.961L22.8799 60.0874C22.6271 60.3402 22.2774 60.4844 21.9207 60.4844C21.1729 60.4844 20.5645 59.876 20.5645 59.1282ZM24.1936 62.7572C24.1936 62.4005 24.3377 62.0508 24.5905 61.798L26.7169 59.6716C26.9697 59.4188 27.3193 59.2747 27.6761 59.2747C28.4239 59.2747 29.0323 59.8831 29.0323 60.6308C29.0323 60.9876 28.8881 61.3373 28.6353 61.5901L26.5089 63.7165C26.2561 63.9693 25.9065 64.1134 25.5497 64.1134C24.8019 64.1134 24.1936 63.505 24.1936 62.7572ZM27.8226 66.3863C27.8226 66.0295 27.9667 65.6798 28.2195 65.427L30.3459 63.3006C30.5987 63.0478 30.9484 62.9037 31.3051 62.9037C32.0529 62.9037 32.6613 63.5121 32.6613 64.2599C32.6613 64.6166 32.5172 64.9663 32.2644 65.2191L30.138 67.3455C29.8852 67.5983 29.5355 67.7424 29.1787 67.7424C28.431 67.7424 27.8226 67.134 27.8226 66.3863ZM32.8078 71.3715C32.06 71.3715 31.4516 70.7631 31.4516 70.0153C31.4516 69.6585 31.5957 69.3089 31.8485 69.0561L33.9749 66.9297C34.2277 66.6769 34.5774 66.5327 34.9342 66.5327C35.6819 66.5327 36.2903 67.1411 36.2903 67.8889C36.2903 68.2457 36.1462 68.5953 35.8934 68.8481L33.767 70.9745C33.5142 71.2273 33.1645 71.3715 32.8078 71.3715ZM38.6577 72.5811H38.4338C38.1255 72.5811 37.8302 72.4689 37.6004 72.2651L36.6955 71.4671L37.604 70.5587C37.9282 70.2344 38.1799 69.8487 38.3659 69.4347L39.4657 70.3502C39.7534 70.59 39.9194 70.9432 39.9194 71.3195C39.9194 72.0153 39.3535 72.5811 38.6577 72.5811ZM49.5058 61.694H49.2967C48.9931 61.694 48.6966 61.5865 48.4645 61.3916L41.9046 55.925L40.3547 57.7844L46.725 63.0921C47.0114 63.3319 47.1774 63.6852 47.1774 64.0614C47.1774 64.7572 46.6116 65.3231 45.9158 65.3231H45.6517C45.3582 65.3231 45.0711 65.2191 44.8449 65.0301L38.2744 59.5552L36.7245 61.4147L43.0948 66.7229C43.3824 66.961 43.5484 67.3142 43.5484 67.6904C43.5484 68.3862 42.9825 68.9521 42.2867 68.9521C41.8225 68.9521 41.37 68.7873 41.0139 68.4914L38.3139 66.241C37.7191 65.0254 36.4971 64.1778 35.0659 64.127C34.9962 62.1536 33.4103 60.5676 31.4368 60.4979C31.3671 58.5245 29.7812 56.9386 27.8078 56.8689C27.7369 54.8494 26.0831 53.2263 24.0471 53.2263C23.053 53.2263 22.0802 53.6291 21.3773 54.332L19.2509 56.4584C19.1239 56.5854 19.0188 56.7295 18.9118 56.8725L15.196 54.6427L18.4535 43.2417L26.62 41.426C28.7623 40.947 31.021 41.051 33.1102 41.7196L34.8922 42.2896L28.8509 45.3102C27.4705 46.0019 26.6129 47.3905 26.6129 48.9345V49.1738C26.6129 51.4082 28.431 53.2263 30.6654 53.2263C31.3996 53.2263 32.122 53.0267 32.7499 52.648L37.2543 49.9469C38.1592 49.4047 39.3736 49.5234 40.155 50.2263L50.3759 59.4247C50.6493 59.6728 50.8065 60.0248 50.8065 60.3934C50.8065 61.1111 50.2235 61.694 49.5058 61.694ZM72.5807 47.6398L52.201 57.8305C52.1349 57.7602 52.0657 57.6935 51.9931 57.6285L41.774 48.4301C40.8786 47.6221 39.7209 47.1779 38.5148 47.1779C37.6329 47.1779 36.767 47.4177 36.0086 47.8725L31.5024 50.5748C31.2496 50.7272 30.9608 50.8069 30.6654 50.8069C29.7641 50.8069 29.0323 50.0751 29.0323 49.1738V48.9345C29.0323 48.3114 29.3784 47.7526 29.9348 47.4744L36.6825 44.1006C37.8373 43.5223 39.2082 43.3929 40.4527 43.7509L48.0546 45.9222L49.8957 45.9682L72.5807 34.0286V47.6398Z" fill="#2D3E9F"/>
</g>
<defs>
<clipPath id="clip0">
<rect width="75" height="75.0002" fill="white" transform="translate(0 0.000244141)"/>
</clipPath>
</defs>
</svg>
