<svg width="57" height="75" viewBox="0 0 57 75" fill="none" xmlns="http://www.w3.org/2000/svg">
<path d="M50.4727 28.8586V21.9727C50.4727 9.8568 40.6159 0 28.5 0C16.3841 0 6.52734 9.8568 6.52734 21.9727V28.8586C3.18796 29.5389 0.667969 32.4984 0.667969 36.0352V44.351C0.667969 45.1601 1.32372 45.8158 2.13281 45.8158C2.94191 45.8158 3.59766 45.1601 3.59766 44.351V36.0352C3.59766 33.6119 5.5689 31.6406 7.99219 31.6406H49.0078C51.4311 31.6406 53.4023 33.6119 53.4023 36.0352V67.6758C53.4023 69.5852 52.1778 71.2137 50.4727 71.8185V62.9883C50.4727 62.1792 49.8169 61.5234 49.0078 61.5234C48.1987 61.5234 47.543 62.1792 47.543 62.9883V72.0703H7.99219C5.5689 72.0703 3.59766 70.0991 3.59766 67.6758V56.1035C3.59766 55.2944 2.94191 54.6387 2.13281 54.6387C1.32372 54.6387 0.667969 55.2944 0.667969 56.1035V67.6758C0.667969 71.7144 3.95357 75 7.99219 75H49.0078C53.0464 75 56.332 71.7144 56.332 67.6758V36.0352C56.332 32.4984 53.812 29.5389 50.4727 28.8586ZM17.3672 28.7109V21.9727C17.3672 15.834 22.3614 10.8398 28.5 10.8398C34.6386 10.8398 39.6328 15.834 39.6328 21.9727V28.7109H17.3672ZM42.5625 28.7109V21.9727C42.5625 14.2187 36.2539 7.91016 28.5 7.91016C20.7461 7.91016 14.4375 14.2187 14.4375 21.9727V28.7109H9.45703V21.9727C9.45703 11.4721 17.9995 2.92969 28.5 2.92969C39.0005 2.92969 47.543 11.4721 47.543 21.9727V28.7109H42.5625Z" fill="#2D3E9F"/>
<path d="M2.13281 51.634C2.51791 51.634 2.89613 51.4778 3.1685 51.2049C3.44087 50.9325 3.59766 50.5548 3.59766 50.1692C3.59766 49.7841 3.44087 49.4059 3.1685 49.1341C2.89613 48.8611 2.51791 48.7043 2.13281 48.7043C1.74772 48.7043 1.36949 48.8611 1.09712 49.1341C0.824753 49.4059 0.667969 49.7841 0.667969 50.1692C0.667969 50.5548 0.824753 50.9325 1.09712 51.2049C1.36949 51.4778 1.74772 51.634 2.13281 51.634Z" fill="#2D3E9F"/>
<path d="M28.5 67.0898C30.9233 67.0898 32.8945 65.1186 32.8945 62.6953V54.9168C35.0952 53.4599 36.429 51.0109 36.429 48.3273C36.429 43.9659 32.8802 40.4171 28.5189 40.4171C24.157 40.4171 20.6087 43.9659 20.6087 48.3273C20.6087 50.9914 21.9277 53.4313 24.1055 54.8916V62.6953C24.1055 65.1186 26.0767 67.0898 28.5 67.0898ZM23.5384 48.3273C23.5384 45.5807 25.7723 43.3468 28.5189 43.3468C31.2649 43.3468 33.4994 45.5807 33.4994 48.3273C33.4994 50.2132 32.4522 51.9156 30.7671 52.771C30.275 53.0205 29.9648 53.5252 29.9648 54.0773V62.6953C29.9648 63.5033 29.308 64.1602 28.5 64.1602C27.692 64.1602 27.0352 63.5033 27.0352 62.6953V54.0579C27.0352 53.5097 26.729 53.0073 26.2415 52.7561C24.5741 51.8967 23.5384 50.1995 23.5384 48.3273Z" fill="#2D3E9F"/>
<path d="M49.0078 58.4473C49.3946 58.4473 49.7711 58.2905 50.0435 58.0181C50.3159 57.7457 50.4727 57.3692 50.4727 56.9824C50.4727 56.5956 50.3159 56.2191 50.0435 55.9467C49.7711 55.6744 49.3946 55.5176 49.0078 55.5176C48.6227 55.5176 48.2445 55.6744 47.9721 55.9467C47.6998 56.2191 47.543 56.5973 47.543 56.9824C47.543 57.3675 47.6998 57.7457 47.9721 58.0181C48.2445 58.2905 48.6227 58.4473 49.0078 58.4473Z" fill="#2D3E9F"/>
</svg>
