<svg width="56" height="75" viewBox="0 0 56 75" fill="none" xmlns="http://www.w3.org/2000/svg">
<path d="M53.7525 5.37223C53.6689 5.37223 53.5855 5.38082 53.5035 5.39754C45.3572 7.06577 36.8813 5.56349 29.8044 1.19727L28.1556 0.184704C27.7544 -0.0614053 27.2491 -0.0614053 26.848 0.184704L25.1991 1.19727C18.1216 5.56177 9.64578 7.06218 1.5001 5.39254C0.82365 5.25441 0.163295 5.69084 0.0253173 6.36729C0.00828491 6.45089 -0.000153532 6.53605 2.72813e-06 6.62137V45.0489C-0.00218491 49.9873 1.31134 54.8373 3.80525 59.0998C6.6609 64.0096 11.0043 67.8836 16.2073 70.1617L27.0017 74.8958C27.3205 75.035 27.683 75.035 28.0018 74.8958L38.8 70.1617C39.4075 69.8955 40.0051 69.6067 40.5876 69.2979C41.1977 68.9742 41.4296 68.2172 41.1058 67.6072C40.782 66.9971 40.0251 66.7653 39.415 67.089C38.8867 67.369 38.347 67.6298 37.7962 67.8716L27.5018 72.3856L17.2111 67.8753C12.4905 65.8069 8.5504 62.2904 5.96039 57.8347C3.69087 53.9543 2.49641 49.5391 2.50016 45.0438V8.11506C10.8163 9.44327 19.333 7.74316 26.5017 3.3235L27.5018 2.71221L28.5018 3.32225C35.6696 7.7441 44.1871 9.44483 52.5034 8.11506V45.0437C52.5034 45.7341 53.0631 46.2938 53.7535 46.2938C54.4438 46.2938 55.0036 45.7341 55.0036 45.0437V6.62121C55.0031 5.93086 54.4431 5.3716 53.7525 5.37223Z" fill="#2D3E9F"/>
<path d="M1.25093 5.3721C1.33453 5.3721 1.41796 5.38069 1.5 5.39741C9.64578 7.06564 18.1211 5.56336 25.1975 1.19715L26.8462 0.184582C27.2473 -0.0615273 27.7527 -0.0615273 28.1537 0.184582L29.8025 1.19715C36.8795 5.56164 45.3548 7.06205 53.5 5.39241C54.1764 5.25428 54.8367 5.69071 54.9747 6.36716C54.9917 6.45076 55.0002 6.53592 55 6.62124V45.0487C55.0022 49.9871 53.6887 54.8371 51.195 59.0996C48.3395 64.0094 43.9964 67.8834 38.7937 70.1615L28 74.8956C27.6812 75.0348 27.3187 75.0348 27 74.8956L16.2025 70.1615C15.595 69.8953 14.9975 69.6065 14.415 69.2977C13.805 68.974 13.5731 68.217 13.8969 67.607C14.2206 66.9969 14.9775 66.7651 15.5875 67.0888C16.1158 67.3688 16.6555 67.6296 17.2062 67.8714L27.5 72.3854L37.79 67.8751C42.5103 65.8067 46.4502 62.2902 49.04 57.8345C51.3094 53.9541 52.5037 49.539 52.5 45.0437V8.11493C44.1844 9.44314 35.6683 7.74303 28.5 3.32337L27.5 2.71209L26.5 3.32212C19.3327 7.74397 10.8159 9.44483 2.50016 8.11506V45.0438C2.50016 45.7342 1.94031 46.2936 1.25 46.2936C0.559687 46.2936 0 45.7339 0 45.0435L2.72813e-06 6.62137C0.000471478 5.93101 0.560466 5.37147 1.25093 5.3721Z" fill="#2D3E9F"/>
<path d="M27.5638 9.38481C27.2413 8.7743 26.485 8.54085 25.8746 8.86337C25.8423 8.88041 25.8106 8.899 25.7798 8.91885C20.0135 12.2967 13.2105 13.4488 6.65355 12.1578C5.9771 12.0197 5.31675 12.4561 5.17877 13.1326C5.16189 13.2154 5.15346 13.2996 5.15346 13.3841V43.2486C5.1558 47.1619 6.24228 50.9983 8.29241 54.3318C10.6865 58.2348 14.2534 61.2811 18.4831 63.0348C19.12 63.3017 19.8525 63.0017 20.1194 62.3648C20.3863 61.7279 20.0863 60.9953 19.4494 60.7284C15.7035 59.1768 12.5442 56.48 10.4238 53.0242C8.6154 50.084 7.65659 46.7004 7.65362 43.2486V14.8642C14.3594 15.8391 21.1973 14.5023 27.0424 11.074C27.6527 10.7516 27.8862 9.99532 27.5638 9.38481Z" fill="#2D3E9F"/>
<path d="M47.29 27.8638L42.2896 22.8635C41.8015 22.3755 41.0102 22.3755 40.522 22.8635L25.1548 38.2307L21.0383 34.1142C20.5501 33.6262 19.7588 33.6262 19.2707 34.1142L14.2703 39.1145C13.7823 39.6027 13.7823 40.394 14.2703 40.8821L24.271 50.8828C24.5054 51.1172 24.8232 51.2491 25.1548 51.2491C25.4864 51.2491 25.8042 51.1172 26.0386 50.8828L47.29 29.6314C47.778 29.1433 47.778 28.352 47.29 27.8638ZM25.1548 48.2314L16.9268 39.9983L20.1545 36.7656L24.2797 40.8821C24.7679 41.3701 25.5592 41.3701 26.0473 40.8821L41.4058 25.5149L44.6435 28.7476L25.1548 48.2314Z" fill="#2D3E9F"/>
</svg>
